<svg xmlns="http://www.w3.org/2000/svg" width="1000" height="1000">
<path
stroke="black"
fill="none"
stroke-width=".1"
d="
M -43 -43 h 63 v 63 h -63 z
M -23 -43 h 63 v 63 h -63 z
M -3 -43 h 63 v 63 h -63 z
M 17 -43 h 63 v 63 h -63 z
M 37 -43 h 63 v 63 h -63 z
M 57 -43 h 63 v 63 h -63 z
M 77 -43 h 63 v 63 h -63 z
M 97 -43 h 63 v 63 h -63 z
M 117 -43 h 63 v 63 h -63 z
M 137 -43 h 63 v 63 h -63 z
M 157 -43 h 63 v 63 h -63 z
M 177 -43 h 63 v 63 h -63 z
M 197 -43 h 63 v 63 h -63 z
M 217 -43 h 63 v 63 h -63 z
M 237 -43 h 63 v 63 h -63 z
M 257 -43 h 63 v 63 h -63 z
M 277 -43 h 63 v 63 h -63 z
M 297 -43 h 63 v 63 h -63 z
M 317 -43 h 63 v 63 h -63 z
M 337 -43 h 63 v 63 h -63 z
M 357 -43 h 63 v 63 h -63 z
M 377 -43 h 63 v 63 h -63 z
M 397 -43 h 63 v 63 h -63 z
M 417 -43 h 63 v 63 h -63 z
M 437 -43 h 63 v 63 h -63 z
M 457 -43 h 63 v 63 h -63 z
M 477 -43 h 63 v 63 h -63 z
M 497 -43 h 63 v 63 h -63 z
M 517 -43 h 63 v 63 h -63 z
M 537 -43 h 63 v 63 h -63 z
M 557 -43 h 63 v 63 h -63 z
M 577 -43 h 63 v 63 h -63 z
M 597 -43 h 63 v 63 h -63 z
M 617 -43 h 63 v 63 h -63 z
M 637 -43 h 63 v 63 h -63 z
M 657 -43 h 63 v 63 h -63 z
M 677 -43 h 63 v 63 h -63 z
M 697 -43 h 63 v 63 h -63 z
M 717 -43 h 63 v 63 h -63 z
M 737 -43 h 63 v 63 h -63 z
M 757 -43 h 63 v 63 h -63 z
M 777 -43 h 63 v 63 h -63 z
M 797 -43 h 63 v 63 h -63 z
M -43 -23 h 63 v 63 h -63 z
M -23 -23 h 63 v 63 h -63 z
M -3 -23 h 63 v 63 h -63 z
M 17 -23 h 63 v 63 h -63 z
M 37 -23 h 63 v 63 h -63 z
M 57 -23 h 63 v 63 h -63 z
M 77 -23 h 63 v 63 h -63 z
M 97 -23 h 63 v 63 h -63 z
M 117 -23 h 63 v 63 h -63 z
M 137 -23 h 63 v 63 h -63 z
M 157 -23 h 63 v 63 h -63 z
M 197 -23 h 63 v 63 h -63 z
M 217 -23 h 63 v 63 h -63 z
M 237 -23 h 63 v 63 h -63 z
M 257 -23 h 63 v 63 h -63 z
M 277 -23 h 63 v 63 h -63 z
M 297 -23 h 63 v 63 h -63 z
M 317 -23 h 63 v 63 h -63 z
M 337 -23 h 63 v 63 h -63 z
M 357 -23 h 63 v 63 h -63 z
M 377 -23 h 63 v 63 h -63 z
M 397 -23 h 63 v 63 h -63 z
M 417 -23 h 63 v 63 h -63 z
M 437 -23 h 63 v 63 h -63 z
M 457 -23 h 63 v 63 h -63 z
M 477 -23 h 63 v 63 h -63 z
M 497 -23 h 63 v 63 h -63 z
M 517 -23 h 63 v 63 h -63 z
M 537 -23 h 63 v 63 h -63 z
M 557 -23 h 63 v 63 h -63 z
M 577 -23 h 63 v 63 h -63 z
M 597 -23 h 63 v 63 h -63 z
M 617 -23 h 63 v 63 h -63 z
M 637 -23 h 63 v 63 h -63 z
M 657 -23 h 63 v 63 h -63 z
M 677 -23 h 63 v 63 h -63 z
M 697 -23 h 63 v 63 h -63 z
M 717 -23 h 63 v 63 h -63 z
M 737 -23 h 63 v 63 h -63 z
M 757 -23 h 63 v 63 h -63 z
M 777 -23 h 63 v 63 h -63 z
M 797 -23 h 63 v 63 h -63 z
M -43 -3 h 63 v 63 h -63 z
M -23 -3 h 63 v 63 h -63 z
M -3 -3 h 63 v 63 h -63 z
M 17 -3 h 63 v 63 h -63 z
M 37 -3 h 63 v 63 h -63 z
M 57 -3 h 63 v 63 h -63 z
M 77 -3 h 63 v 63 h -63 z
M 97 -3 h 63 v 63 h -63 z
M 117 -3 h 63 v 63 h -63 z
M 137 -3 h 63 v 63 h -63 z
M 157 -3 h 63 v 63 h -63 z
M 197 -3 h 63 v 63 h -63 z
M 217 -3 h 63 v 63 h -63 z
M 237 -3 h 63 v 63 h -63 z
M 257 -3 h 63 v 63 h -63 z
M 277 -3 h 63 v 63 h -63 z
M 297 -3 h 63 v 63 h -63 z
M 317 -3 h 63 v 63 h -63 z
M 337 -3 h 63 v 63 h -63 z
M 357 -3 h 63 v 63 h -63 z
M 377 -3 h 63 v 63 h -63 z
M 397 -3 h 63 v 63 h -63 z
M 417 -3 h 63 v 63 h -63 z
M 437 -3 h 63 v 63 h -63 z
M 457 -3 h 63 v 63 h -63 z
M 477 -3 h 63 v 63 h -63 z
M 497 -3 h 63 v 63 h -63 z
M 517 -3 h 63 v 63 h -63 z
M 537 -3 h 63 v 63 h -63 z
M 557 -3 h 63 v 63 h -63 z
M 577 -3 h 63 v 63 h -63 z
M 597 -3 h 63 v 63 h -63 z
M 617 -3 h 63 v 63 h -63 z
M 637 -3 h 63 v 63 h -63 z
M 657 -3 h 63 v 63 h -63 z
M 677 -3 h 63 v 63 h -63 z
M 697 -3 h 63 v 63 h -63 z
M 717 -3 h 63 v 63 h -63 z
M 737 -3 h 63 v 63 h -63 z
M 757 -3 h 63 v 63 h -63 z
M 777 -3 h 63 v 63 h -63 z
M 797 -3 h 63 v 63 h -63 z
M -43 17 h 63 v 63 h -63 z
M -23 17 h 63 v 63 h -63 z
M -3 17 h 63 v 63 h -63 z
M 17 17 h 63 v 63 h -63 z
M 37 17 h 63 v 63 h -63 z
M 57 17 h 63 v 63 h -63 z
M 77 17 h 63 v 63 h -63 z
M 97 17 h 63 v 63 h -63 z
M 117 17 h 63 v 63 h -63 z
M 137 17 h 63 v 63 h -63 z
M 217 17 h 63 v 63 h -63 z
M 237 17 h 63 v 63 h -63 z
M 257 17 h 63 v 63 h -63 z
M 277 17 h 63 v 63 h -63 z
M 297 17 h 63 v 63 h -63 z
M 317 17 h 63 v 63 h -63 z
M 337 17 h 63 v 63 h -63 z
M 357 17 h 63 v 63 h -63 z
M 377 17 h 63 v 63 h -63 z
M 397 17 h 63 v 63 h -63 z
M 417 17 h 63 v 63 h -63 z
M 437 17 h 63 v 63 h -63 z
M 457 17 h 63 v 63 h -63 z
M 477 17 h 63 v 63 h -63 z
M 497 17 h 63 v 63 h -63 z
M 517 17 h 63 v 63 h -63 z
M 537 17 h 63 v 63 h -63 z
M 557 17 h 63 v 63 h -63 z
M 577 17 h 63 v 63 h -63 z
M 597 17 h 63 v 63 h -63 z
M 617 17 h 63 v 63 h -63 z
M 637 17 h 63 v 63 h -63 z
M 657 17 h 63 v 63 h -63 z
M 677 17 h 63 v 63 h -63 z
M 697 17 h 63 v 63 h -63 z
M 717 17 h 63 v 63 h -63 z
M 737 17 h 63 v 63 h -63 z
M 757 17 h 63 v 63 h -63 z
M 777 17 h 63 v 63 h -63 z
M 797 17 h 63 v 63 h -63 z
M -43 37 h 63 v 63 h -63 z
M -23 37 h 63 v 63 h -63 z
M -3 37 h 63 v 63 h -63 z
M 17 37 h 63 v 63 h -63 z
M 37 37 h 63 v 63 h -63 z
M 57 37 h 63 v 63 h -63 z
M 77 37 h 63 v 63 h -63 z
M 97 37 h 63 v 63 h -63 z
M 117 37 h 63 v 63 h -63 z
M 137 37 h 63 v 63 h -63 z
M 237 37 h 63 v 63 h -63 z
M 257 37 h 63 v 63 h -63 z
M 277 37 h 63 v 63 h -63 z
M 297 37 h 63 v 63 h -63 z
M 317 37 h 63 v 63 h -63 z
M 337 37 h 63 v 63 h -63 z
M 357 37 h 63 v 63 h -63 z
M 377 37 h 63 v 63 h -63 z
M 397 37 h 63 v 63 h -63 z
M 417 37 h 63 v 63 h -63 z
M 437 37 h 63 v 63 h -63 z
M 457 37 h 63 v 63 h -63 z
M 477 37 h 63 v 63 h -63 z
M 497 37 h 63 v 63 h -63 z
M 517 37 h 63 v 63 h -63 z
M 537 37 h 63 v 63 h -63 z
M 557 37 h 63 v 63 h -63 z
M 577 37 h 63 v 63 h -63 z
M 597 37 h 63 v 63 h -63 z
M 617 37 h 63 v 63 h -63 z
M 637 37 h 63 v 63 h -63 z
M 657 37 h 63 v 63 h -63 z
M 677 37 h 63 v 63 h -63 z
M 697 37 h 63 v 63 h -63 z
M 717 37 h 63 v 63 h -63 z
M 737 37 h 63 v 63 h -63 z
M 757 37 h 63 v 63 h -63 z
M 777 37 h 63 v 63 h -63 z
M 797 37 h 63 v 63 h -63 z
M -43 57 h 63 v 63 h -63 z
M -23 57 h 63 v 63 h -63 z
M -3 57 h 63 v 63 h -63 z
M 17 57 h 63 v 63 h -63 z
M 37 57 h 63 v 63 h -63 z
M 57 57 h 63 v 63 h -63 z
M 77 57 h 63 v 63 h -63 z
M 97 57 h 63 v 63 h -63 z
M 117 57 h 63 v 63 h -63 z
M 137 57 h 63 v 63 h -63 z
M 317 57 h 63 v 63 h -63 z
M 337 57 h 63 v 63 h -63 z
M 377 57 h 63 v 63 h -63 z
M 397 57 h 63 v 63 h -63 z
M 417 57 h 63 v 63 h -63 z
M 437 57 h 63 v 63 h -63 z
M 457 57 h 63 v 63 h -63 z
M 477 57 h 63 v 63 h -63 z
M 497 57 h 63 v 63 h -63 z
M 517 57 h 63 v 63 h -63 z
M 537 57 h 63 v 63 h -63 z
M 557 57 h 63 v 63 h -63 z
M 577 57 h 63 v 63 h -63 z
M 597 57 h 63 v 63 h -63 z
M 617 57 h 63 v 63 h -63 z
M 637 57 h 63 v 63 h -63 z
M 657 57 h 63 v 63 h -63 z
M 677 57 h 63 v 63 h -63 z
M 697 57 h 63 v 63 h -63 z
M 717 57 h 63 v 63 h -63 z
M 737 57 h 63 v 63 h -63 z
M 757 57 h 63 v 63 h -63 z
M 777 57 h 63 v 63 h -63 z
M 797 57 h 63 v 63 h -63 z
M -43 77 h 63 v 63 h -63 z
M -23 77 h 63 v 63 h -63 z
M -3 77 h 63 v 63 h -63 z
M 17 77 h 63 v 63 h -63 z
M 37 77 h 63 v 63 h -63 z
M 57 77 h 63 v 63 h -63 z
M 77 77 h 63 v 63 h -63 z
M 97 77 h 63 v 63 h -63 z
M 117 77 h 63 v 63 h -63 z
M 137 77 h 63 v 63 h -63 z
M 377 77 h 63 v 63 h -63 z
M 397 77 h 63 v 63 h -63 z
M 417 77 h 63 v 63 h -63 z
M 437 77 h 63 v 63 h -63 z
M 457 77 h 63 v 63 h -63 z
M 477 77 h 63 v 63 h -63 z
M 497 77 h 63 v 63 h -63 z
M 517 77 h 63 v 63 h -63 z
M 537 77 h 63 v 63 h -63 z
M 557 77 h 63 v 63 h -63 z
M 577 77 h 63 v 63 h -63 z
M 597 77 h 63 v 63 h -63 z
M 617 77 h 63 v 63 h -63 z
M 637 77 h 63 v 63 h -63 z
M 657 77 h 63 v 63 h -63 z
M 677 77 h 63 v 63 h -63 z
M 697 77 h 63 v 63 h -63 z
M 717 77 h 63 v 63 h -63 z
M 737 77 h 63 v 63 h -63 z
M 757 77 h 63 v 63 h -63 z
M 777 77 h 63 v 63 h -63 z
M 797 77 h 63 v 63 h -63 z
M -43 97 h 63 v 63 h -63 z
M -23 97 h 63 v 63 h -63 z
M -3 97 h 63 v 63 h -63 z
M 17 97 h 63 v 63 h -63 z
M 37 97 h 63 v 63 h -63 z
M 57 97 h 63 v 63 h -63 z
M 77 97 h 63 v 63 h -63 z
M 97 97 h 63 v 63 h -63 z
M 117 97 h 63 v 63 h -63 z
M 137 97 h 63 v 63 h -63 z
M 157 97 h 63 v 63 h -63 z
M 377 97 h 63 v 63 h -63 z
M 397 97 h 63 v 63 h -63 z
M 417 97 h 63 v 63 h -63 z
M 437 97 h 63 v 63 h -63 z
M 457 97 h 63 v 63 h -63 z
M 477 97 h 63 v 63 h -63 z
M 497 97 h 63 v 63 h -63 z
M 517 97 h 63 v 63 h -63 z
M 537 97 h 63 v 63 h -63 z
M 557 97 h 63 v 63 h -63 z
M 577 97 h 63 v 63 h -63 z
M 597 97 h 63 v 63 h -63 z
M 617 97 h 63 v 63 h -63 z
M 637 97 h 63 v 63 h -63 z
M 657 97 h 63 v 63 h -63 z
M 677 97 h 63 v 63 h -63 z
M 697 97 h 63 v 63 h -63 z
M 717 97 h 63 v 63 h -63 z
M 737 97 h 63 v 63 h -63 z
M 757 97 h 63 v 63 h -63 z
M 777 97 h 63 v 63 h -63 z
M 797 97 h 63 v 63 h -63 z
M -43 117 h 63 v 63 h -63 z
M -23 117 h 63 v 63 h -63 z
M -3 117 h 63 v 63 h -63 z
M 17 117 h 63 v 63 h -63 z
M 37 117 h 63 v 63 h -63 z
M 57 117 h 63 v 63 h -63 z
M 77 117 h 63 v 63 h -63 z
M 97 117 h 63 v 63 h -63 z
M 117 117 h 63 v 63 h -63 z
M 137 117 h 63 v 63 h -63 z
M 157 117 h 63 v 63 h -63 z
M 377 117 h 63 v 63 h -63 z
M 397 117 h 63 v 63 h -63 z
M 417 117 h 63 v 63 h -63 z
M 437 117 h 63 v 63 h -63 z
M 457 117 h 63 v 63 h -63 z
M 477 117 h 63 v 63 h -63 z
M 497 117 h 63 v 63 h -63 z
M 517 117 h 63 v 63 h -63 z
M 537 117 h 63 v 63 h -63 z
M 557 117 h 63 v 63 h -63 z
M 577 117 h 63 v 63 h -63 z
M 597 117 h 63 v 63 h -63 z
M 617 117 h 63 v 63 h -63 z
M 637 117 h 63 v 63 h -63 z
M 657 117 h 63 v 63 h -63 z
M 677 117 h 63 v 63 h -63 z
M 697 117 h 63 v 63 h -63 z
M 717 117 h 63 v 63 h -63 z
M 737 117 h 63 v 63 h -63 z
M 757 117 h 63 v 63 h -63 z
M 777 117 h 63 v 63 h -63 z
M 797 117 h 63 v 63 h -63 z
M -43 137 h 63 v 63 h -63 z
M -23 137 h 63 v 63 h -63 z
M -3 137 h 63 v 63 h -63 z
M 17 137 h 63 v 63 h -63 z
M 37 137 h 63 v 63 h -63 z
M 57 137 h 63 v 63 h -63 z
M 77 137 h 63 v 63 h -63 z
M 97 137 h 63 v 63 h -63 z
M 117 137 h 63 v 63 h -63 z
M 137 137 h 63 v 63 h -63 z
M 157 137 h 63 v 63 h -63 z
M 177 137 h 63 v 63 h -63 z
M 377 137 h 63 v 63 h -63 z
M 397 137 h 63 v 63 h -63 z
M 417 137 h 63 v 63 h -63 z
M 437 137 h 63 v 63 h -63 z
M 457 137 h 63 v 63 h -63 z
M 477 137 h 63 v 63 h -63 z
M 497 137 h 63 v 63 h -63 z
M 517 137 h 63 v 63 h -63 z
M 537 137 h 63 v 63 h -63 z
M 557 137 h 63 v 63 h -63 z
M 577 137 h 63 v 63 h -63 z
M 597 137 h 63 v 63 h -63 z
M 617 137 h 63 v 63 h -63 z
M 637 137 h 63 v 63 h -63 z
M 657 137 h 63 v 63 h -63 z
M 677 137 h 63 v 63 h -63 z
M 697 137 h 63 v 63 h -63 z
M 717 137 h 63 v 63 h -63 z
M 737 137 h 63 v 63 h -63 z
M 757 137 h 63 v 63 h -63 z
M 777 137 h 63 v 63 h -63 z
M 797 137 h 63 v 63 h -63 z
M -43 157 h 63 v 63 h -63 z
M -23 157 h 63 v 63 h -63 z
M -3 157 h 63 v 63 h -63 z
M 17 157 h 63 v 63 h -63 z
M 37 157 h 63 v 63 h -63 z
M 57 157 h 63 v 63 h -63 z
M 77 157 h 63 v 63 h -63 z
M 97 157 h 63 v 63 h -63 z
M 117 157 h 63 v 63 h -63 z
M 137 157 h 63 v 63 h -63 z
M 157 157 h 63 v 63 h -63 z
M 177 157 h 63 v 63 h -63 z
M 377 157 h 63 v 63 h -63 z
M 397 157 h 63 v 63 h -63 z
M 417 157 h 63 v 63 h -63 z
M 437 157 h 63 v 63 h -63 z
M 457 157 h 63 v 63 h -63 z
M 477 157 h 63 v 63 h -63 z
M 497 157 h 63 v 63 h -63 z
M 517 157 h 63 v 63 h -63 z
M 537 157 h 63 v 63 h -63 z
M 557 157 h 63 v 63 h -63 z
M 577 157 h 63 v 63 h -63 z
M 597 157 h 63 v 63 h -63 z
M 617 157 h 63 v 63 h -63 z
M 637 157 h 63 v 63 h -63 z
M 657 157 h 63 v 63 h -63 z
M 677 157 h 63 v 63 h -63 z
M 697 157 h 63 v 63 h -63 z
M 717 157 h 63 v 63 h -63 z
M 737 157 h 63 v 63 h -63 z
M 757 157 h 63 v 63 h -63 z
M 777 157 h 63 v 63 h -63 z
M 797 157 h 63 v 63 h -63 z
M -43 177 h 63 v 63 h -63 z
M -23 177 h 63 v 63 h -63 z
M -3 177 h 63 v 63 h -63 z
M 17 177 h 63 v 63 h -63 z
M 37 177 h 63 v 63 h -63 z
M 57 177 h 63 v 63 h -63 z
M 77 177 h 63 v 63 h -63 z
M 97 177 h 63 v 63 h -63 z
M 117 177 h 63 v 63 h -63 z
M 137 177 h 63 v 63 h -63 z
M 157 177 h 63 v 63 h -63 z
M 177 177 h 63 v 63 h -63 z
M 377 177 h 63 v 63 h -63 z
M 397 177 h 63 v 63 h -63 z
M 417 177 h 63 v 63 h -63 z
M 437 177 h 63 v 63 h -63 z
M 457 177 h 63 v 63 h -63 z
M 477 177 h 63 v 63 h -63 z
M 497 177 h 63 v 63 h -63 z
M 517 177 h 63 v 63 h -63 z
M 537 177 h 63 v 63 h -63 z
M 557 177 h 63 v 63 h -63 z
M 577 177 h 63 v 63 h -63 z
M 597 177 h 63 v 63 h -63 z
M 617 177 h 63 v 63 h -63 z
M 637 177 h 63 v 63 h -63 z
M 657 177 h 63 v 63 h -63 z
M 677 177 h 63 v 63 h -63 z
M 697 177 h 63 v 63 h -63 z
M 717 177 h 63 v 63 h -63 z
M 737 177 h 63 v 63 h -63 z
M 757 177 h 63 v 63 h -63 z
M 777 177 h 63 v 63 h -63 z
M 797 177 h 63 v 63 h -63 z
M -43 197 h 63 v 63 h -63 z
M -23 197 h 63 v 63 h -63 z
M -3 197 h 63 v 63 h -63 z
M 17 197 h 63 v 63 h -63 z
M 37 197 h 63 v 63 h -63 z
M 57 197 h 63 v 63 h -63 z
M 77 197 h 63 v 63 h -63 z
M 97 197 h 63 v 63 h -63 z
M 117 197 h 63 v 63 h -63 z
M 137 197 h 63 v 63 h -63 z
M 157 197 h 63 v 63 h -63 z
M 177 197 h 63 v 63 h -63 z
M 197 197 h 63 v 63 h -63 z
M 397 197 h 63 v 63 h -63 z
M 417 197 h 63 v 63 h -63 z
M 437 197 h 63 v 63 h -63 z
M 457 197 h 63 v 63 h -63 z
M 477 197 h 63 v 63 h -63 z
M 497 197 h 63 v 63 h -63 z
M 517 197 h 63 v 63 h -63 z
M 537 197 h 63 v 63 h -63 z
M 557 197 h 63 v 63 h -63 z
M 577 197 h 63 v 63 h -63 z
M 597 197 h 63 v 63 h -63 z
M 617 197 h 63 v 63 h -63 z
M 637 197 h 63 v 63 h -63 z
M 657 197 h 63 v 63 h -63 z
M 677 197 h 63 v 63 h -63 z
M 697 197 h 63 v 63 h -63 z
M 717 197 h 63 v 63 h -63 z
M 737 197 h 63 v 63 h -63 z
M 757 197 h 63 v 63 h -63 z
M 777 197 h 63 v 63 h -63 z
M 797 197 h 63 v 63 h -63 z
M -43 217 h 63 v 63 h -63 z
M -23 217 h 63 v 63 h -63 z
M -3 217 h 63 v 63 h -63 z
M 17 217 h 63 v 63 h -63 z
M 37 217 h 63 v 63 h -63 z
M 57 217 h 63 v 63 h -63 z
M 77 217 h 63 v 63 h -63 z
M 97 217 h 63 v 63 h -63 z
M 117 217 h 63 v 63 h -63 z
M 137 217 h 63 v 63 h -63 z
M 157 217 h 63 v 63 h -63 z
M 177 217 h 63 v 63 h -63 z
M 197 217 h 63 v 63 h -63 z
M 217 217 h 63 v 63 h -63 z
M 397 217 h 63 v 63 h -63 z
M 417 217 h 63 v 63 h -63 z
M 437 217 h 63 v 63 h -63 z
M 457 217 h 63 v 63 h -63 z
M 477 217 h 63 v 63 h -63 z
M 497 217 h 63 v 63 h -63 z
M 517 217 h 63 v 63 h -63 z
M 557 217 h 63 v 63 h -63 z
M 577 217 h 63 v 63 h -63 z
M 597 217 h 63 v 63 h -63 z
M 617 217 h 63 v 63 h -63 z
M 637 217 h 63 v 63 h -63 z
M 657 217 h 63 v 63 h -63 z
M 677 217 h 63 v 63 h -63 z
M 697 217 h 63 v 63 h -63 z
M 717 217 h 63 v 63 h -63 z
M 737 217 h 63 v 63 h -63 z
M 757 217 h 63 v 63 h -63 z
M 777 217 h 63 v 63 h -63 z
M 797 217 h 63 v 63 h -63 z
M -43 237 h 63 v 63 h -63 z
M -23 237 h 63 v 63 h -63 z
M -3 237 h 63 v 63 h -63 z
M 17 237 h 63 v 63 h -63 z
M 37 237 h 63 v 63 h -63 z
M 57 237 h 63 v 63 h -63 z
M 77 237 h 63 v 63 h -63 z
M 97 237 h 63 v 63 h -63 z
M 117 237 h 63 v 63 h -63 z
M 137 237 h 63 v 63 h -63 z
M 157 237 h 63 v 63 h -63 z
M 177 237 h 63 v 63 h -63 z
M 197 237 h 63 v 63 h -63 z
M 217 237 h 63 v 63 h -63 z
M 237 237 h 63 v 63 h -63 z
M 257 237 h 63 v 63 h -63 z
M 397 237 h 63 v 63 h -63 z
M 417 237 h 63 v 63 h -63 z
M 437 237 h 63 v 63 h -63 z
M 457 237 h 63 v 63 h -63 z
M 477 237 h 63 v 63 h -63 z
M 497 237 h 63 v 63 h -63 z
M 577 237 h 63 v 63 h -63 z
M 597 237 h 63 v 63 h -63 z
M 617 237 h 63 v 63 h -63 z
M 637 237 h 63 v 63 h -63 z
M 657 237 h 63 v 63 h -63 z
M 677 237 h 63 v 63 h -63 z
M 697 237 h 63 v 63 h -63 z
M 717 237 h 63 v 63 h -63 z
M 737 237 h 63 v 63 h -63 z
M 757 237 h 63 v 63 h -63 z
M 777 237 h 63 v 63 h -63 z
M 797 237 h 63 v 63 h -63 z
M -43 257 h 63 v 63 h -63 z
M -23 257 h 63 v 63 h -63 z
M -3 257 h 63 v 63 h -63 z
M 17 257 h 63 v 63 h -63 z
M 37 257 h 63 v 63 h -63 z
M 57 257 h 63 v 63 h -63 z
M 77 257 h 63 v 63 h -63 z
M 97 257 h 63 v 63 h -63 z
M 117 257 h 63 v 63 h -63 z
M 137 257 h 63 v 63 h -63 z
M 157 257 h 63 v 63 h -63 z
M 177 257 h 63 v 63 h -63 z
M 197 257 h 63 v 63 h -63 z
M 217 257 h 63 v 63 h -63 z
M 237 257 h 63 v 63 h -63 z
M 257 257 h 63 v 63 h -63 z
M 277 257 h 63 v 63 h -63 z
M 397 257 h 63 v 63 h -63 z
M 417 257 h 63 v 63 h -63 z
M 437 257 h 63 v 63 h -63 z
M 457 257 h 63 v 63 h -63 z
M 577 257 h 63 v 63 h -63 z
M 597 257 h 63 v 63 h -63 z
M 617 257 h 63 v 63 h -63 z
M 637 257 h 63 v 63 h -63 z
M 657 257 h 63 v 63 h -63 z
M 677 257 h 63 v 63 h -63 z
M 697 257 h 63 v 63 h -63 z
M 717 257 h 63 v 63 h -63 z
M 737 257 h 63 v 63 h -63 z
M 757 257 h 63 v 63 h -63 z
M 777 257 h 63 v 63 h -63 z
M 797 257 h 63 v 63 h -63 z
M -43 277 h 63 v 63 h -63 z
M -23 277 h 63 v 63 h -63 z
M -3 277 h 63 v 63 h -63 z
M 17 277 h 63 v 63 h -63 z
M 37 277 h 63 v 63 h -63 z
M 57 277 h 63 v 63 h -63 z
M 77 277 h 63 v 63 h -63 z
M 97 277 h 63 v 63 h -63 z
M 117 277 h 63 v 63 h -63 z
M 137 277 h 63 v 63 h -63 z
M 157 277 h 63 v 63 h -63 z
M 177 277 h 63 v 63 h -63 z
M 197 277 h 63 v 63 h -63 z
M 217 277 h 63 v 63 h -63 z
M 237 277 h 63 v 63 h -63 z
M 257 277 h 63 v 63 h -63 z
M 277 277 h 63 v 63 h -63 z
M 297 277 h 63 v 63 h -63 z
M 317 277 h 63 v 63 h -63 z
M 417 277 h 63 v 63 h -63 z
M 437 277 h 63 v 63 h -63 z
M 557 277 h 63 v 63 h -63 z
M 577 277 h 63 v 63 h -63 z
M 597 277 h 63 v 63 h -63 z
M 617 277 h 63 v 63 h -63 z
M 637 277 h 63 v 63 h -63 z
M 657 277 h 63 v 63 h -63 z
M 677 277 h 63 v 63 h -63 z
M 697 277 h 63 v 63 h -63 z
M 717 277 h 63 v 63 h -63 z
M 737 277 h 63 v 63 h -63 z
M 757 277 h 63 v 63 h -63 z
M 777 277 h 63 v 63 h -63 z
M 797 277 h 63 v 63 h -63 z
M -43 297 h 63 v 63 h -63 z
M -23 297 h 63 v 63 h -63 z
M -3 297 h 63 v 63 h -63 z
M 17 297 h 63 v 63 h -63 z
M 37 297 h 63 v 63 h -63 z
M 57 297 h 63 v 63 h -63 z
M 77 297 h 63 v 63 h -63 z
M 97 297 h 63 v 63 h -63 z
M 117 297 h 63 v 63 h -63 z
M 137 297 h 63 v 63 h -63 z
M 157 297 h 63 v 63 h -63 z
M 177 297 h 63 v 63 h -63 z
M 197 297 h 63 v 63 h -63 z
M 217 297 h 63 v 63 h -63 z
M 237 297 h 63 v 63 h -63 z
M 257 297 h 63 v 63 h -63 z
M 277 297 h 63 v 63 h -63 z
M 297 297 h 63 v 63 h -63 z
M 517 297 h 63 v 63 h -63 z
M 537 297 h 63 v 63 h -63 z
M 557 297 h 63 v 63 h -63 z
M 577 297 h 63 v 63 h -63 z
M 597 297 h 63 v 63 h -63 z
M 617 297 h 63 v 63 h -63 z
M 637 297 h 63 v 63 h -63 z
M 657 297 h 63 v 63 h -63 z
M 677 297 h 63 v 63 h -63 z
M 697 297 h 63 v 63 h -63 z
M 717 297 h 63 v 63 h -63 z
M 737 297 h 63 v 63 h -63 z
M 757 297 h 63 v 63 h -63 z
M 777 297 h 63 v 63 h -63 z
M 797 297 h 63 v 63 h -63 z
M -43 317 h 63 v 63 h -63 z
M -23 317 h 63 v 63 h -63 z
M -3 317 h 63 v 63 h -63 z
M 17 317 h 63 v 63 h -63 z
M 37 317 h 63 v 63 h -63 z
M 57 317 h 63 v 63 h -63 z
M 77 317 h 63 v 63 h -63 z
M 97 317 h 63 v 63 h -63 z
M 117 317 h 63 v 63 h -63 z
M 137 317 h 63 v 63 h -63 z
M 157 317 h 63 v 63 h -63 z
M 177 317 h 63 v 63 h -63 z
M 197 317 h 63 v 63 h -63 z
M 217 317 h 63 v 63 h -63 z
M 237 317 h 63 v 63 h -63 z
M 257 317 h 63 v 63 h -63 z
M 277 317 h 63 v 63 h -63 z
M 457 317 h 63 v 63 h -63 z
M 477 317 h 63 v 63 h -63 z
M 497 317 h 63 v 63 h -63 z
M 517 317 h 63 v 63 h -63 z
M 537 317 h 63 v 63 h -63 z
M 557 317 h 63 v 63 h -63 z
M 577 317 h 63 v 63 h -63 z
M 597 317 h 63 v 63 h -63 z
M 617 317 h 63 v 63 h -63 z
M 637 317 h 63 v 63 h -63 z
M 657 317 h 63 v 63 h -63 z
M 677 317 h 63 v 63 h -63 z
M 697 317 h 63 v 63 h -63 z
M 717 317 h 63 v 63 h -63 z
M 737 317 h 63 v 63 h -63 z
M 757 317 h 63 v 63 h -63 z
M 777 317 h 63 v 63 h -63 z
M 797 317 h 63 v 63 h -63 z
M -43 337 h 63 v 63 h -63 z
M -23 337 h 63 v 63 h -63 z
M -3 337 h 63 v 63 h -63 z
M 97 337 h 63 v 63 h -63 z
M 117 337 h 63 v 63 h -63 z
M 137 337 h 63 v 63 h -63 z
M 157 337 h 63 v 63 h -63 z
M 177 337 h 63 v 63 h -63 z
M 197 337 h 63 v 63 h -63 z
M 217 337 h 63 v 63 h -63 z
M 237 337 h 63 v 63 h -63 z
M 257 337 h 63 v 63 h -63 z
M 277 337 h 63 v 63 h -63 z
M 457 337 h 63 v 63 h -63 z
M 477 337 h 63 v 63 h -63 z
M 497 337 h 63 v 63 h -63 z
M 517 337 h 63 v 63 h -63 z
M 537 337 h 63 v 63 h -63 z
M 557 337 h 63 v 63 h -63 z
M 577 337 h 63 v 63 h -63 z
M 597 337 h 63 v 63 h -63 z
M 617 337 h 63 v 63 h -63 z
M 637 337 h 63 v 63 h -63 z
M 657 337 h 63 v 63 h -63 z
M 677 337 h 63 v 63 h -63 z
M 697 337 h 63 v 63 h -63 z
M 717 337 h 63 v 63 h -63 z
M 737 337 h 63 v 63 h -63 z
M 757 337 h 63 v 63 h -63 z
M 777 337 h 63 v 63 h -63 z
M 797 337 h 63 v 63 h -63 z
M -43 357 h 63 v 63 h -63 z
M -23 357 h 63 v 63 h -63 z
M -3 357 h 63 v 63 h -63 z
M 17 357 h 63 v 63 h -63 z
M 197 357 h 63 v 63 h -63 z
M 217 357 h 63 v 63 h -63 z
M 237 357 h 63 v 63 h -63 z
M 257 357 h 63 v 63 h -63 z
M 277 357 h 63 v 63 h -63 z
M 457 357 h 63 v 63 h -63 z
M 477 357 h 63 v 63 h -63 z
M 497 357 h 63 v 63 h -63 z
M 517 357 h 63 v 63 h -63 z
M 537 357 h 63 v 63 h -63 z
M 557 357 h 63 v 63 h -63 z
M 577 357 h 63 v 63 h -63 z
M 597 357 h 63 v 63 h -63 z
M 617 357 h 63 v 63 h -63 z
M 637 357 h 63 v 63 h -63 z
M 657 357 h 63 v 63 h -63 z
M 677 357 h 63 v 63 h -63 z
M 697 357 h 63 v 63 h -63 z
M 717 357 h 63 v 63 h -63 z
M 737 357 h 63 v 63 h -63 z
M 757 357 h 63 v 63 h -63 z
M 777 357 h 63 v 63 h -63 z
M 797 357 h 63 v 63 h -63 z
M -43 377 h 63 v 63 h -63 z
M -23 377 h 63 v 63 h -63 z
M -3 377 h 63 v 63 h -63 z
M 17 377 h 63 v 63 h -63 z
M 497 377 h 63 v 63 h -63 z
M 517 377 h 63 v 63 h -63 z
M 537 377 h 63 v 63 h -63 z
M 557 377 h 63 v 63 h -63 z
M 577 377 h 63 v 63 h -63 z
M 597 377 h 63 v 63 h -63 z
M 617 377 h 63 v 63 h -63 z
M 637 377 h 63 v 63 h -63 z
M 657 377 h 63 v 63 h -63 z
M 677 377 h 63 v 63 h -63 z
M 697 377 h 63 v 63 h -63 z
M 717 377 h 63 v 63 h -63 z
M 737 377 h 63 v 63 h -63 z
M 757 377 h 63 v 63 h -63 z
M 777 377 h 63 v 63 h -63 z
M 797 377 h 63 v 63 h -63 z
M -43 397 h 63 v 63 h -63 z
M -23 397 h 63 v 63 h -63 z
M -3 397 h 63 v 63 h -63 z
M 17 397 h 63 v 63 h -63 z
M 537 397 h 63 v 63 h -63 z
M 557 397 h 63 v 63 h -63 z
M 577 397 h 63 v 63 h -63 z
M 597 397 h 63 v 63 h -63 z
M 617 397 h 63 v 63 h -63 z
M 637 397 h 63 v 63 h -63 z
M 657 397 h 63 v 63 h -63 z
M 677 397 h 63 v 63 h -63 z
M 697 397 h 63 v 63 h -63 z
M 717 397 h 63 v 63 h -63 z
M 737 397 h 63 v 63 h -63 z
M 757 397 h 63 v 63 h -63 z
M 777 397 h 63 v 63 h -63 z
M 797 397 h 63 v 63 h -63 z
M -43 417 h 63 v 63 h -63 z
M -23 417 h 63 v 63 h -63 z
M -3 417 h 63 v 63 h -63 z
M 17 417 h 63 v 63 h -63 z
M 717 417 h 63 v 63 h -63 z
M 737 417 h 63 v 63 h -63 z
M 757 417 h 63 v 63 h -63 z
M 777 417 h 63 v 63 h -63 z
M 797 417 h 63 v 63 h -63 z
M -43 437 h 63 v 63 h -63 z
M -23 437 h 63 v 63 h -63 z
M -3 437 h 63 v 63 h -63 z
M 17 437 h 63 v 63 h -63 z
M 737 437 h 63 v 63 h -63 z
M 757 437 h 63 v 63 h -63 z
M 777 437 h 63 v 63 h -63 z
M 797 437 h 63 v 63 h -63 z
M -43 457 h 63 v 63 h -63 z
M -23 457 h 63 v 63 h -63 z
M -3 457 h 63 v 63 h -63 z
M 757 457 h 63 v 63 h -63 z
M 777 457 h 63 v 63 h -63 z
M 797 457 h 63 v 63 h -63 z
M -43 477 h 63 v 63 h -63 z
M -23 477 h 63 v 63 h -63 z
M -3 477 h 63 v 63 h -63 z
M 777 477 h 63 v 63 h -63 z
M 797 477 h 63 v 63 h -63 z
M -43 497 h 63 v 63 h -63 z
M -23 497 h 63 v 63 h -63 z
M -3 497 h 63 v 63 h -63 z
M 777 497 h 63 v 63 h -63 z
M 797 497 h 63 v 63 h -63 z
M -43 517 h 63 v 63 h -63 z
M -23 517 h 63 v 63 h -63 z
M 777 517 h 63 v 63 h -63 z
M 797 517 h 63 v 63 h -63 z
M -43 537 h 63 v 63 h -63 z
M -23 537 h 63 v 63 h -63 z
M 597 537 h 63 v 63 h -63 z
M 617 537 h 63 v 63 h -63 z
M 637 537 h 63 v 63 h -63 z
M 757 537 h 63 v 63 h -63 z
M 777 537 h 63 v 63 h -63 z
M 797 537 h 63 v 63 h -63 z
M -43 557 h 63 v 63 h -63 z
M -23 557 h 63 v 63 h -63 z
M 557 557 h 63 v 63 h -63 z
M 577 557 h 63 v 63 h -63 z
M 597 557 h 63 v 63 h -63 z
M 617 557 h 63 v 63 h -63 z
M 637 557 h 63 v 63 h -63 z
M 657 557 h 63 v 63 h -63 z
M 677 557 h 63 v 63 h -63 z
M 737 557 h 63 v 63 h -63 z
M 757 557 h 63 v 63 h -63 z
M 777 557 h 63 v 63 h -63 z
M 797 557 h 63 v 63 h -63 z
M -43 577 h 63 v 63 h -63 z
M -23 577 h 63 v 63 h -63 z
M 357 577 h 63 v 63 h -63 z
M 377 577 h 63 v 63 h -63 z
M 397 577 h 63 v 63 h -63 z
M 417 577 h 63 v 63 h -63 z
M 537 577 h 63 v 63 h -63 z
M 557 577 h 63 v 63 h -63 z
M 577 577 h 63 v 63 h -63 z
M 597 577 h 63 v 63 h -63 z
M 617 577 h 63 v 63 h -63 z
M 637 577 h 63 v 63 h -63 z
M 657 577 h 63 v 63 h -63 z
M 677 577 h 63 v 63 h -63 z
M 697 577 h 63 v 63 h -63 z
M 717 577 h 63 v 63 h -63 z
M 737 577 h 63 v 63 h -63 z
M 757 577 h 63 v 63 h -63 z
M 777 577 h 63 v 63 h -63 z
M 797 577 h 63 v 63 h -63 z
M -43 597 h 63 v 63 h -63 z
M -23 597 h 63 v 63 h -63 z
M 317 597 h 63 v 63 h -63 z
M 337 597 h 63 v 63 h -63 z
M 357 597 h 63 v 63 h -63 z
M 377 597 h 63 v 63 h -63 z
M 397 597 h 63 v 63 h -63 z
M 417 597 h 63 v 63 h -63 z
M 437 597 h 63 v 63 h -63 z
M 537 597 h 63 v 63 h -63 z
M 557 597 h 63 v 63 h -63 z
M 577 597 h 63 v 63 h -63 z
M 597 597 h 63 v 63 h -63 z
M 617 597 h 63 v 63 h -63 z
M 637 597 h 63 v 63 h -63 z
M 657 597 h 63 v 63 h -63 z
M 677 597 h 63 v 63 h -63 z
M 697 597 h 63 v 63 h -63 z
M 717 597 h 63 v 63 h -63 z
M 737 597 h 63 v 63 h -63 z
M 757 597 h 63 v 63 h -63 z
M 777 597 h 63 v 63 h -63 z
M 797 597 h 63 v 63 h -63 z
M -43 617 h 63 v 63 h -63 z
M -23 617 h 63 v 63 h -63 z
M 277 617 h 63 v 63 h -63 z
M 297 617 h 63 v 63 h -63 z
M 317 617 h 63 v 63 h -63 z
M 337 617 h 63 v 63 h -63 z
M 357 617 h 63 v 63 h -63 z
M 377 617 h 63 v 63 h -63 z
M 397 617 h 63 v 63 h -63 z
M 417 617 h 63 v 63 h -63 z
M 437 617 h 63 v 63 h -63 z
M 457 617 h 63 v 63 h -63 z
M 517 617 h 63 v 63 h -63 z
M 537 617 h 63 v 63 h -63 z
M 557 617 h 63 v 63 h -63 z
M 577 617 h 63 v 63 h -63 z
M 597 617 h 63 v 63 h -63 z
M 617 617 h 63 v 63 h -63 z
M 637 617 h 63 v 63 h -63 z
M 657 617 h 63 v 63 h -63 z
M 677 617 h 63 v 63 h -63 z
M 697 617 h 63 v 63 h -63 z
M 717 617 h 63 v 63 h -63 z
M 737 617 h 63 v 63 h -63 z
M 757 617 h 63 v 63 h -63 z
M 777 617 h 63 v 63 h -63 z
M 797 617 h 63 v 63 h -63 z
M -43 637 h 63 v 63 h -63 z
M -23 637 h 63 v 63 h -63 z
M 257 637 h 63 v 63 h -63 z
M 277 637 h 63 v 63 h -63 z
M 297 637 h 63 v 63 h -63 z
M 317 637 h 63 v 63 h -63 z
M 337 637 h 63 v 63 h -63 z
M 357 637 h 63 v 63 h -63 z
M 377 637 h 63 v 63 h -63 z
M 397 637 h 63 v 63 h -63 z
M 417 637 h 63 v 63 h -63 z
M 437 637 h 63 v 63 h -63 z
M 457 637 h 63 v 63 h -63 z
M 477 637 h 63 v 63 h -63 z
M 517 637 h 63 v 63 h -63 z
M 537 637 h 63 v 63 h -63 z
M 557 637 h 63 v 63 h -63 z
M 577 637 h 63 v 63 h -63 z
M 597 637 h 63 v 63 h -63 z
M 617 637 h 63 v 63 h -63 z
M 637 637 h 63 v 63 h -63 z
M 657 637 h 63 v 63 h -63 z
M 677 637 h 63 v 63 h -63 z
M 697 637 h 63 v 63 h -63 z
M 717 637 h 63 v 63 h -63 z
M 737 637 h 63 v 63 h -63 z
M 757 637 h 63 v 63 h -63 z
M 777 637 h 63 v 63 h -63 z
M 797 637 h 63 v 63 h -63 z
M -43 657 h 63 v 63 h -63 z
M -23 657 h 63 v 63 h -63 z
M -3 657 h 63 v 63 h -63 z
M 237 657 h 63 v 63 h -63 z
M 257 657 h 63 v 63 h -63 z
M 277 657 h 63 v 63 h -63 z
M 297 657 h 63 v 63 h -63 z
M 317 657 h 63 v 63 h -63 z
M 337 657 h 63 v 63 h -63 z
M 357 657 h 63 v 63 h -63 z
M 377 657 h 63 v 63 h -63 z
M 397 657 h 63 v 63 h -63 z
M 417 657 h 63 v 63 h -63 z
M 437 657 h 63 v 63 h -63 z
M 457 657 h 63 v 63 h -63 z
M 477 657 h 63 v 63 h -63 z
M 497 657 h 63 v 63 h -63 z
M 517 657 h 63 v 63 h -63 z
M 537 657 h 63 v 63 h -63 z
M 557 657 h 63 v 63 h -63 z
M 577 657 h 63 v 63 h -63 z
M 597 657 h 63 v 63 h -63 z
M 617 657 h 63 v 63 h -63 z
M 637 657 h 63 v 63 h -63 z
M 657 657 h 63 v 63 h -63 z
M 677 657 h 63 v 63 h -63 z
M 697 657 h 63 v 63 h -63 z
M 717 657 h 63 v 63 h -63 z
M 737 657 h 63 v 63 h -63 z
M 757 657 h 63 v 63 h -63 z
M 777 657 h 63 v 63 h -63 z
M 797 657 h 63 v 63 h -63 z
M -43 677 h 63 v 63 h -63 z
M -23 677 h 63 v 63 h -63 z
M -3 677 h 63 v 63 h -63 z
M 17 677 h 63 v 63 h -63 z
M 237 677 h 63 v 63 h -63 z
M 257 677 h 63 v 63 h -63 z
M 277 677 h 63 v 63 h -63 z
M 297 677 h 63 v 63 h -63 z
M 317 677 h 63 v 63 h -63 z
M 337 677 h 63 v 63 h -63 z
M 357 677 h 63 v 63 h -63 z
M 377 677 h 63 v 63 h -63 z
M 397 677 h 63 v 63 h -63 z
M 417 677 h 63 v 63 h -63 z
M 437 677 h 63 v 63 h -63 z
M 457 677 h 63 v 63 h -63 z
M 477 677 h 63 v 63 h -63 z
M 497 677 h 63 v 63 h -63 z
M 517 677 h 63 v 63 h -63 z
M 537 677 h 63 v 63 h -63 z
M 557 677 h 63 v 63 h -63 z
M 577 677 h 63 v 63 h -63 z
M 597 677 h 63 v 63 h -63 z
M 617 677 h 63 v 63 h -63 z
M 637 677 h 63 v 63 h -63 z
M 657 677 h 63 v 63 h -63 z
M 677 677 h 63 v 63 h -63 z
M 697 677 h 63 v 63 h -63 z
M 717 677 h 63 v 63 h -63 z
M 737 677 h 63 v 63 h -63 z
M 757 677 h 63 v 63 h -63 z
M 777 677 h 63 v 63 h -63 z
M 797 677 h 63 v 63 h -63 z
M -43 697 h 63 v 63 h -63 z
M -23 697 h 63 v 63 h -63 z
M -3 697 h 63 v 63 h -63 z
M 17 697 h 63 v 63 h -63 z
M 217 697 h 63 v 63 h -63 z
M 237 697 h 63 v 63 h -63 z
M 257 697 h 63 v 63 h -63 z
M 277 697 h 63 v 63 h -63 z
M 297 697 h 63 v 63 h -63 z
M 317 697 h 63 v 63 h -63 z
M 337 697 h 63 v 63 h -63 z
M 357 697 h 63 v 63 h -63 z
M 377 697 h 63 v 63 h -63 z
M 397 697 h 63 v 63 h -63 z
M 417 697 h 63 v 63 h -63 z
M 437 697 h 63 v 63 h -63 z
M 457 697 h 63 v 63 h -63 z
M 477 697 h 63 v 63 h -63 z
M 497 697 h 63 v 63 h -63 z
M 517 697 h 63 v 63 h -63 z
M 537 697 h 63 v 63 h -63 z
M 557 697 h 63 v 63 h -63 z
M 577 697 h 63 v 63 h -63 z
M 597 697 h 63 v 63 h -63 z
M 617 697 h 63 v 63 h -63 z
M 637 697 h 63 v 63 h -63 z
M 657 697 h 63 v 63 h -63 z
M 677 697 h 63 v 63 h -63 z
M 697 697 h 63 v 63 h -63 z
M 717 697 h 63 v 63 h -63 z
M 737 697 h 63 v 63 h -63 z
M 757 697 h 63 v 63 h -63 z
M 777 697 h 63 v 63 h -63 z
M 797 697 h 63 v 63 h -63 z
M -43 717 h 63 v 63 h -63 z
M -23 717 h 63 v 63 h -63 z
M -3 717 h 63 v 63 h -63 z
M 17 717 h 63 v 63 h -63 z
M 37 717 h 63 v 63 h -63 z
M 217 717 h 63 v 63 h -63 z
M 237 717 h 63 v 63 h -63 z
M 257 717 h 63 v 63 h -63 z
M 277 717 h 63 v 63 h -63 z
M 297 717 h 63 v 63 h -63 z
M 317 717 h 63 v 63 h -63 z
M 337 717 h 63 v 63 h -63 z
M 357 717 h 63 v 63 h -63 z
M 377 717 h 63 v 63 h -63 z
M 397 717 h 63 v 63 h -63 z
M 417 717 h 63 v 63 h -63 z
M 437 717 h 63 v 63 h -63 z
M 457 717 h 63 v 63 h -63 z
M 477 717 h 63 v 63 h -63 z
M 497 717 h 63 v 63 h -63 z
M 517 717 h 63 v 63 h -63 z
M 537 717 h 63 v 63 h -63 z
M 557 717 h 63 v 63 h -63 z
M 577 717 h 63 v 63 h -63 z
M 597 717 h 63 v 63 h -63 z
M 617 717 h 63 v 63 h -63 z
M 637 717 h 63 v 63 h -63 z
M 657 717 h 63 v 63 h -63 z
M 677 717 h 63 v 63 h -63 z
M 697 717 h 63 v 63 h -63 z
M 717 717 h 63 v 63 h -63 z
M 737 717 h 63 v 63 h -63 z
M 757 717 h 63 v 63 h -63 z
M 777 717 h 63 v 63 h -63 z
M 797 717 h 63 v 63 h -63 z
M -43 737 h 63 v 63 h -63 z
M -23 737 h 63 v 63 h -63 z
M -3 737 h 63 v 63 h -63 z
M 17 737 h 63 v 63 h -63 z
M 37 737 h 63 v 63 h -63 z
M 57 737 h 63 v 63 h -63 z
M 197 737 h 63 v 63 h -63 z
M 217 737 h 63 v 63 h -63 z
M 237 737 h 63 v 63 h -63 z
M 257 737 h 63 v 63 h -63 z
M 277 737 h 63 v 63 h -63 z
M 297 737 h 63 v 63 h -63 z
M 317 737 h 63 v 63 h -63 z
M 337 737 h 63 v 63 h -63 z
M 357 737 h 63 v 63 h -63 z
M 377 737 h 63 v 63 h -63 z
M 397 737 h 63 v 63 h -63 z
M 417 737 h 63 v 63 h -63 z
M 437 737 h 63 v 63 h -63 z
M 457 737 h 63 v 63 h -63 z
M 477 737 h 63 v 63 h -63 z
M 497 737 h 63 v 63 h -63 z
M 517 737 h 63 v 63 h -63 z
M 537 737 h 63 v 63 h -63 z
M 557 737 h 63 v 63 h -63 z
M 577 737 h 63 v 63 h -63 z
M 597 737 h 63 v 63 h -63 z
M 617 737 h 63 v 63 h -63 z
M 637 737 h 63 v 63 h -63 z
M 657 737 h 63 v 63 h -63 z
M 677 737 h 63 v 63 h -63 z
M 697 737 h 63 v 63 h -63 z
M 717 737 h 63 v 63 h -63 z
M 737 737 h 63 v 63 h -63 z
M 757 737 h 63 v 63 h -63 z
M 777 737 h 63 v 63 h -63 z
M 797 737 h 63 v 63 h -63 z
M -43 757 h 63 v 63 h -63 z
M -23 757 h 63 v 63 h -63 z
M -3 757 h 63 v 63 h -63 z
M 17 757 h 63 v 63 h -63 z
M 37 757 h 63 v 63 h -63 z
M 57 757 h 63 v 63 h -63 z
M 77 757 h 63 v 63 h -63 z
M 197 757 h 63 v 63 h -63 z
M 217 757 h 63 v 63 h -63 z
M 237 757 h 63 v 63 h -63 z
M 257 757 h 63 v 63 h -63 z
M 277 757 h 63 v 63 h -63 z
M 297 757 h 63 v 63 h -63 z
M 317 757 h 63 v 63 h -63 z
M 337 757 h 63 v 63 h -63 z
M 357 757 h 63 v 63 h -63 z
M 377 757 h 63 v 63 h -63 z
M 397 757 h 63 v 63 h -63 z
M 417 757 h 63 v 63 h -63 z
M 437 757 h 63 v 63 h -63 z
M 457 757 h 63 v 63 h -63 z
M 477 757 h 63 v 63 h -63 z
M 497 757 h 63 v 63 h -63 z
M 517 757 h 63 v 63 h -63 z
M 537 757 h 63 v 63 h -63 z
M 557 757 h 63 v 63 h -63 z
M 577 757 h 63 v 63 h -63 z
M 597 757 h 63 v 63 h -63 z
M 617 757 h 63 v 63 h -63 z
M 637 757 h 63 v 63 h -63 z
M 657 757 h 63 v 63 h -63 z
M 677 757 h 63 v 63 h -63 z
M 697 757 h 63 v 63 h -63 z
M 717 757 h 63 v 63 h -63 z
M 737 757 h 63 v 63 h -63 z
M 757 757 h 63 v 63 h -63 z
M 777 757 h 63 v 63 h -63 z
M 797 757 h 63 v 63 h -63 z
M -43 777 h 63 v 63 h -63 z
M -23 777 h 63 v 63 h -63 z
M -3 777 h 63 v 63 h -63 z
M 17 777 h 63 v 63 h -63 z
M 37 777 h 63 v 63 h -63 z
M 57 777 h 63 v 63 h -63 z
M 77 777 h 63 v 63 h -63 z
M 97 777 h 63 v 63 h -63 z
M 177 777 h 63 v 63 h -63 z
M 197 777 h 63 v 63 h -63 z
M 217 777 h 63 v 63 h -63 z
M 237 777 h 63 v 63 h -63 z
M 257 777 h 63 v 63 h -63 z
M 277 777 h 63 v 63 h -63 z
M 297 777 h 63 v 63 h -63 z
M 317 777 h 63 v 63 h -63 z
M 337 777 h 63 v 63 h -63 z
M 357 777 h 63 v 63 h -63 z
M 377 777 h 63 v 63 h -63 z
M 397 777 h 63 v 63 h -63 z
M 417 777 h 63 v 63 h -63 z
M 437 777 h 63 v 63 h -63 z
M 457 777 h 63 v 63 h -63 z
M 477 777 h 63 v 63 h -63 z
M 497 777 h 63 v 63 h -63 z
M 517 777 h 63 v 63 h -63 z
M 537 777 h 63 v 63 h -63 z
M 557 777 h 63 v 63 h -63 z
M 577 777 h 63 v 63 h -63 z
M 597 777 h 63 v 63 h -63 z
M 617 777 h 63 v 63 h -63 z
M 637 777 h 63 v 63 h -63 z
M 657 777 h 63 v 63 h -63 z
M 677 777 h 63 v 63 h -63 z
M 697 777 h 63 v 63 h -63 z
M 717 777 h 63 v 63 h -63 z
M 737 777 h 63 v 63 h -63 z
M 757 777 h 63 v 63 h -63 z
M 777 777 h 63 v 63 h -63 z
M 797 777 h 63 v 63 h -63 z
M -43 797 h 63 v 63 h -63 z
M -23 797 h 63 v 63 h -63 z
M -3 797 h 63 v 63 h -63 z
M 17 797 h 63 v 63 h -63 z
M 37 797 h 63 v 63 h -63 z
M 57 797 h 63 v 63 h -63 z
M 77 797 h 63 v 63 h -63 z
M 97 797 h 63 v 63 h -63 z
M 117 797 h 63 v 63 h -63 z
M 137 797 h 63 v 63 h -63 z
M 157 797 h 63 v 63 h -63 z
M 177 797 h 63 v 63 h -63 z
M 197 797 h 63 v 63 h -63 z
M 217 797 h 63 v 63 h -63 z
M 237 797 h 63 v 63 h -63 z
M 257 797 h 63 v 63 h -63 z
M 277 797 h 63 v 63 h -63 z
M 297 797 h 63 v 63 h -63 z
M 317 797 h 63 v 63 h -63 z
M 337 797 h 63 v 63 h -63 z
M 357 797 h 63 v 63 h -63 z
M 377 797 h 63 v 63 h -63 z
M 397 797 h 63 v 63 h -63 z
M 417 797 h 63 v 63 h -63 z
M 437 797 h 63 v 63 h -63 z
M 457 797 h 63 v 63 h -63 z
M 477 797 h 63 v 63 h -63 z
M 497 797 h 63 v 63 h -63 z
M 517 797 h 63 v 63 h -63 z
M 537 797 h 63 v 63 h -63 z
M 557 797 h 63 v 63 h -63 z
M 577 797 h 63 v 63 h -63 z
M 597 797 h 63 v 63 h -63 z
M 617 797 h 63 v 63 h -63 z
M 637 797 h 63 v 63 h -63 z
M 657 797 h 63 v 63 h -63 z
M 677 797 h 63 v 63 h -63 z
M 697 797 h 63 v 63 h -63 z
M 717 797 h 63 v 63 h -63 z
M 737 797 h 63 v 63 h -63 z
M 757 797 h 63 v 63 h -63 z
M 777 797 h 63 v 63 h -63 z
M 797 797 h 63 v 63 h -63 z
M 365 342
L 361.8 340
L 360 341.125
L 457 401.75
L 48.6 657
L 40 651.625
L 457 391
L 375.4 340
L 360 349.625
L 457 410.25
L 60 658.375
L 197 744
L 144.2 777
L 140 774.375
L 197 738.75
L 40 640.625
L 457 380
L 380 331.875
L 399 320
L 417 331.25
L 340 379.375
L 597 540
L 569.8 557
L 340 413.375
L 457 340.25
L 456.6 340
L 340 412.875
L 570.6 557
L 597 540.5
L 340 379.875
L 417 331.75
L 398.2 320
L 380 331.375
L 457 379.5
L 40 640.125
L 197 738.25
L 140 773.875
L 145 777
L 197 744.5
L 60 658.875
L 457 410.75
L 360 350.125
L 376.2 340
L 457 390.5
L 40 651.125
L 49.4 657
L 457 402.25
L 360 341.625
L 362.6 340
L 457 399
L 44.2 657
L 40 654.375
L 457 393.75
L 371 340
L 360 346.875
L 457 407.5
L 57.8 657
L 40 645.875
L 457 385.25
L 380 337.125
L 407.4 320
L 417 326
L 340 374.125
L 600.6 537
L 717 464.25
L 710.2 460
L 491 597
L 480 590.125
L 688.2 460
L 717 478
L 622.6 537
L 340 360.375
L 340.6 360
L 623.8 537
L 717 478.75
L 687 460
L 480 589.375
L 492.2 597
L 711.4 460
L 717 463.5
L 599.4 537
L 340 374.875
L 417 326.75
L 406.2 320
L 380 336.375
L 457 384.5
L 40 645.125
L 59 657
L 457 408.25
L 360 347.625
L 372.2 340
L 457 393
L 40 653.625
L 45.4 657
L 457 399.75
L 361.4 340
L 360 340.875
L 457 401.5
L 48.2 657
L 40 651.875
L 457 391.25
L 375 340
L 360 349.375
L 457 410
L 60 658.125
L 197 743.75
L 143.8 777
L 140 774.625
L 197 739
L 40 640.875
L 457 380.25
L 380 332.125
L 399.4 320
L 417 331
L 340 379.125
L 597 539.75
L 569.4 557
L 340 413.625
L 457 340.5
L 456.2 340
L 340 412.625
L 571 557
L 597 540.75
L 340 380.125
L 417 332
L 397.8 320
L 380 331.125
L 457 379.25
L 40 639.875
L 197 738
L 140 773.625
L 145.4 777
L 197 744.75
L 60 659.125
L 457 411
L 360 350.375
L 376.6 340
L 457 390.25
L 40 650.875
L 49.8 657
L 457 402.5
L 360 341.875
L 363 340
L 457 398.75
L 43.8 657
L 40 654.625
L 457 394
L 370.6 340
L 360 346.625
L 457 407.25
L 57.4 657
L 40 646.125
L 457 385.5
L 380 337.375
L 407.8 320
L 417 325.75
L 340 373.875
L 601 537
L 717 464.5
L 709.8 460
L 490.6 597
L 480 590.375
L 688.6 460
L 717 477.75
L 622.2 537
L 340 360.625
L 341 360
L 624.2 537
L 717 479
L 686.6 460
L 480 589.125
L 492.6 597
L 711.8 460
L 717 463.25
L 599 537
L 340 375.125
L 417 327
L 405.8 320
L 380 336.125
L 457 384.25
L 40 644.875
L 59.4 657
L 457 408.5
L 360 347.875
L 372.6 340
L 457 392.75
L 40 653.375
L 45.8 657
L 457 400
L 361 340
L 360 340.625
L 457 401.25
L 47.8 657
L 40 652.125
L 457 391.5
L 374.6 340
L 360 349.125
L 457 409.75
L 60 657.875
L 197 743.5
L 143.4 777
L 140 774.875
L 197 739.25
L 40 641.125
L 457 380.5
L 380 332.375
L 399.8 320
L 417 330.75
L 340 378.875
L 597 539.5
L 569 557
L 340 413.875
L 457 340.75
L 455.8 340
L 340 412.375
L 571.4 557
L 597 541
L 340 380.375
L 417 332.25
L 397.4 320
L 380 330.875
L 457 379
L 40 639.625
L 197 737.75
L 140 773.375
L 145.8 777
L 197 745
L 60 659.375
L 457 411.25
L 360 350.625
L 377 340
L 457 390
L 40 650.625
L 50.2 657
L 457 402.75
L 360 342.125
L 363.4 340
L 457 398.5
L 43.4 657
L 40 654.875
L 457 394.25
L 370.2 340
L 360 346.375
L 457 407
L 57 657
L 40 646.375
L 457 385.75
L 380 337.625
L 408.2 320
L 417 325.5
L 340 373.625
L 601.4 537
L 717 464.75
L 709.4 460
L 490.2 597
L 480 590.625
L 689 460
L 717 477.5
L 621.8 537
L 340 360.875
L 341.4 360
L 624.6 537
L 717 479.25
L 686.2 460
L 480 588.875
L 493 597
L 712.2 460
L 717 463
L 598.6 537
L 340 375.375
L 417 327.25
L 405.4 320
L 380 335.875
L 457 384
L 40 644.625
L 59.8 657
L 457 408.75
L 360 348.125
L 373 340
L 457 392.5
L 40 653.125
L 46.2 657
L 457 400.25
L 360.6 340
L 360 340.375
L 457 401
L 47.4 657
L 40 652.375
L 457 391.75
L 374.2 340
L 360 348.875
L 457 409.5
L 60 657.625
L 197 743.25
L 143 777
L 140 775.125
L 197 739.5
L 40 641.375
L 457 380.75
L 380 332.625
L 400.2 320
L 417 330.5
L 340 378.625
L 597 539.25
L 568.6 557
L 340 414.125
L 457 341
L 455.4 340
L 340 412.125
L 571.8 557
L 597 541.25
L 340 380.625
L 417 332.5
L 380 309.375
L 397 298.75
L 380 288.125
L 397 277.5
L 240 179.375
L 335 120
L 377 146.25
L 263.8 217
L 260 214.625
L 377 141.5
L 342.6 120
L 240 184.125
L 397 282.25
L 380 292.875
L 397 303.5
L 380 314.125
L 417 337.25
L 340 385.375
L 597 546
L 579.4 557
L 340 407.375
L 447.8 340
L 457 345.75
L 340 418.875
L 561 557
L 716.2 460
L 717 460.5
L 562.6 557
L 340 417.875
L 457 344.75
L 449.4 340
L 340 408.375
L 577.8 557
L 597 545
L 340 384.375
L 417 336.25
L 380 313.125
L 397 302.5
L 380 291.875
L 397 281.25
L 240 183.125
L 341 120
L 377 142.5
L 260 215.625
L 262.2 217
L 377 145.25
L 336.6 120
L 240 180.375
L 397 278.5
L 380 289.125
L 397 299.75
L 380 310.375
L 417 333.5
L 340 381.625
L 597 542.25
L 573.4 557
L 340 411.125
L 453.8 340
L 457 342
L 340 415.125
L 567 557
L 597 538.25
L 340 377.625
L 417 329.5
L 401.8 320
L 380 333.625
L 457 381.75
L 40 642.375
L 197 740.5
L 140 776.125
L 141.4 777
L 197 742.25
L 40 644.125
L 457 383.5
L 380 335.375
L 404.6 320
L 417 327.75
L 340 375.875
L 597.8 537
L 717 462.5
L 713 460
L 557.8 557
L 338.6 420
L 40 606.625
L 217 717.25
L 140 765.375
L 158.6 777
L 197 753
L 80 679.875
L 495.8 420
L 497 420.75
L 80 681.375
L 197 754.5
L 160 777.625
L 177 788.25
L 163 797
L 160 795.125
L 177 784.5
L 140 761.375
L 217 713.25
L 40 602.625
L 332.2 420
L 557 560.5
L 498.6 597
L 480 585.375
L 680.6 460
L 737 495.25
L 670.2 537
L 547 460
L 359.8 577
L 80 402.125
L 97 391.5
L 80 380.875
L 81.4 380
L 97 389.75
L 80 400.375
L 362.6 577
L 549.8 460
L 673 537
L 737 497
L 677.8 460
L 480 583.625
L 533.4 617
L 537 614.75
L 480 579.125
L 670.6 460
L 757 514
L 700 549.625
L 711.8 557
L 771 520
L 777 523.75
L 723.8 557
L 700 542.125
L 757 506.5
L 746.6 500
L 687.4 537
L 564.2 460
L 377 577
L 80 391.375
L 97 380.75
L 95.8 380
L 80 389.875
L 379.4 577
L 566.6 460
L 689.8 537
L 749 500
L 757 505
L 700 540.625
L 726.2 557
L 757 537.75
L 632.6 460
L 445.4 577
L 162.2 400
L 80 451.375
L 317 599.5
L 289 617
L 80 486.375
L 197 413.25
L 175.8 400
L 80 459.875
L 317 608
L 302.6 617
L 80 477.875
L 197 404.75
L 189.4 400
L 80 468.375
L 317 616.5
L 316.2 617
L 80 469.375
L 191 400
L 197 403.75
L 80 476.875
L 304.2 617
L 317 609
L 80 460.875
L 177.4 400
L 197 412.25
L 80 485.375
L 290.6 617
L 317 600.5
L 80 452.375
L 163.8 400
L 447 577
L 634.2 460
L 757.4 537
L 777 524.75
L 769.4 520
L 710.2 557
L 700 550.625
L 757 515
L 669 460
L 480 578.125
L 537 613.75
L 531.8 617
L 500 597.125
L 557 561.5
L 330.6 420
L 40 601.625
L 217 712.25
L 140 760.375
L 177 783.5
L 160 794.125
L 164.6 797
L 177 789.25
L 160 778.625
L 197 755.5
L 80 682.375
L 497 421.75
L 494.2 420
L 80 678.875
L 197 752
L 157 777
L 140 766.375
L 217 718.25
L 40 607.625
L 457 347
L 445.8 340
L 340 406.125
L 581.4 557
L 597 547.25
L 340 386.625
L 417 338.5
L 380 315.375
L 397 304.75
L 380 294.125
L 397 283.5
L 260 197.875
L 377 124.75
L 369.4 120
L 246.2 197
L 240 193.125
L 357 120
L 377 132.5
L 260 205.625
L 278.2 217
L 377 155.25
L 320.6 120
L 240 170.375
L 397 268.5
L 380 279.125
L 397 289.75
L 380 300.375
L 397 311
L 380 321.625
L 457 369.75
L 40 630.375
L 210.6 737
L 217 733
L 40 622.375
L 457 361.75
L 422.2 340
L 340 391.375
L 597 552
L 589 557
L 340 401.375
L 438.2 340
L 457 351.75
L 40 612.375
L 217 723
L 140 771.125
L 149.4 777
L 197 747.25
L 60 661.625
L 457 413.5
L 360 352.875
L 412.6 320
L 417 322.75
L 360 358.375
L 457 419
L 60 667.125
L 75.8 677
L 487 420
L 497 426.25
L 80 686.875
L 197 760
L 160 783.125
L 177 793.75
L 171.8 797
L 160 789.625
L 177 779
L 120 743.375
L 237 670.25
L 60 559.625
L 283.4 420
L 537 578.5
L 500 601.625
L 524.6 617
L 537 609.25
L 234.2 420
L 60 528.875
L 257 652
L 249 657
L 60 538.875
L 250.2 420
L 537 599.25
L 508.6 617
L 500 611.625
L 537 588.5
L 267.4 420
L 60 549.625
L 237 660.25
L 114.2 737
L 100 728.125
L 277 617.5
L 80 494.375
L 199 420
L 450.2 577
L 637.4 460
L 760.6 537
L 777 526.75
L 766.2 520
L 707 557
L 700 552.625
L 757 517
L 665.8 460
L 478.6 577
L 227.4 420
L 60 524.625
L 257 647.75
L 242.2 657
L 60 543.125
L 257 420
L 537 595
L 501.8 617
L 500 615.875
L 537 592.75
L 260.6 420
L 60 545.375
L 238.6 657
L 257 645.5
L 60 522.375
L 223.8 420
L 475 577
L 662.2 460
L 757 519.25
L 700 554.875
L 703.4 557
L 762.6 520
L 777 529
L 764.2 537
L 641 460
L 453.8 577
L 202.6 420
L 80 496.625
L 277 619.75
L 100 730.375
L 110.6 737
L 237 658
L 60 547.375
L 263.8 420
L 537 590.75
L 500 613.875
L 505 617
L 537 597
L 253.8 420
L 60 541.125
L 245.4 657
L 257 649.75
L 60 526.625
L 230.6 420
L 537 611.5
L 528.2 617
L 500 599.375
L 557 563.75
L 327 420
L 40 599.375
L 217 710
L 140 758.125
L 177 781.25
L 160 791.875
L 168.2 797
L 177 791.5
L 160 780.875
L 197 757.75
L 80 684.625
L 497 424
L 490.6 420
L 79.4 677
L 60 664.875
L 457 416.75
L 360 356.125
L 417 320.5
L 416.2 320
L 360 355.125
L 457 415.75
L 60 663.875
L 197 749.5
L 153 777
L 140 768.875
L 217 720.75
L 40 610.125
L 457 349.5
L 441.8 340
L 340 403.625
L 585.4 557
L 597 549.75
L 340 389.125
L 418.6 340
L 457 364
L 40 624.625
L 217 735.25
L 214.2 737
L 40 628.125
L 457 367.5
L 380 319.375
L 397 308.75
L 380 298.125
L 397 287.5
L 320 239.375
L 377 203.75
L 220 105.625
L 237 95
L 200 71.875
L 217 61.25
L 215 60
L 200 69.375
L 237 92.5
L 220 103.125
L 377 201.25
L 319.8 237
L 260 199.625
L 377 126.5
L 366.6 120
L 243.4 197
L 240 194.875
L 359.8 120
L 377 130.75
L 260 203.875
L 313 237
L 377 197
L 220 98.875
L 237 88.25
L 223.8 80
L 200 94.875
L 203.4 97
L 230.6 80
L 237 84
L 216.2 97
L 200 86.875
L 217 76.25
L 200 65.625
L 209 60
L 217 65
L 200 75.625
L 237 98.75
L 220 109.375
L 377 207.5
L 320 243.125
L 374.2 277
L 397 262.75
L 240 164.625
L 317 116.5
L 290.6 100
L 231.4 137
L 220 129.875
L 267.8 100
L 377 168.25
L 280 228.875
L 293 237
L 377 184.5
L 241.8 100
L 220 113.625
L 377 211.75
L 320 247.375
L 335.4 257
L 377 231
L 240 145.375
L 312.6 100
L 317 102.75
L 240 150.875
L 377 236.5
L 340 259.625
L 367.8 277
L 397 258.75
L 240 160.625
L 317 112.5
L 297 100
L 237.8 137
L 220 125.875
L 261.4 100
L 377 172.25
L 280 232.875
L 286.6 237
L 377 180.5
L 248.2 100
L 220 117.625
L 377 215.75
L 320 251.375
L 329 257
L 377 227
L 240 141.375
L 306.2 100
L 317 106.75
L 240 154.875
L 397 253
L 358.6 277
L 340 265.375
L 380.6 240
L 397 250.25
L 354.2 277
L 340 268.125
L 385 240
L 397 247.5
L 349.8 277
L 340 270.875
L 389.4 240
L 397 244.75
L 345.4 277
L 340 273.625
L 393.8 240
L 397 242
L 341 277
L 340 276.375
L 397 240.75
L 395.8 240
L 340 274.875
L 343.4 277
L 397 243.5
L 391.4 240
L 340 272.125
L 347.8 277
L 397 246.25
L 387 240
L 340 269.375
L 352.2 277
L 397 249
L 382.6 240
L 340 266.625
L 356.6 277
L 397 251.75
L 378.2 240
L 340 263.875
L 361 277
L 397 254.5
L 240 156.375
L 317 108.25
L 303.8 100
L 240 139.875
L 377 225.5
L 326.6 257
L 320 252.875
L 377 217.25
L 220 119.125
L 250.6 100
L 377 179
L 284.2 237
L 280 234.375
L 377 173.75
L 259 100
L 220 124.375
L 377 222.5
L 321.8 257
L 320 255.875
L 377 220.25
L 220 122.125
L 255.4 100
L 377 176
L 280 236.625
L 280.6 237
L 377 176.75
L 254.2 100
L 220 121.375
L 377 219.5
L 320 255.125
L 323 257
L 377 223.25
L 240 137.625
L 300.2 100
L 317 110.5
L 240 158.625
L 397 256.75
L 364.6 277
L 340 261.625
L 377 238.5
L 240 152.875
L 317 104.75
L 309.4 100
L 240 143.375
L 377 229
L 332.2 257
L 320 249.375
L 377 213.75
L 220 115.625
L 245 100
L 377 182.5
L 289.8 237
L 280 230.875
L 377 170.25
L 264.6 100
L 220 127.875
L 234.6 137
L 293.8 100
L 317 114.5
L 240 162.625
L 397 260.75
L 371 277
L 340 257.625
L 377 234.5
L 240 148.875
L 317 100.75
L 315.8 100
L 240 147.375
L 377 233
L 338.6 257
L 320 245.375
L 377 209.75
L 220 111.625
L 238.6 100
L 377 186.5
L 296.2 237
L 280 226.875
L 377 166.25
L 271 100
L 220 131.875
L 228.2 137
L 287.4 100
L 317 118.5
L 240 166.625
L 397 264.75
L 377.4 277
L 320 241.125
L 377 205.5
L 220 107.375
L 237 96.75
L 200 73.625
L 217 63
L 212.2 60
L 200 67.625
L 217 78.25
L 200 88.875
L 213 97
L 237 82
L 233.8 80
L 206.6 97
L 200 92.875
L 220.6 80
L 237 90.25
L 220 100.875
L 377 199
L 316.2 237
L 260 201.875
L 377 128.75
L 363 120
L 240 196.875
L 240.2 197
L 363.4 120
L 377 128.5
L 260 201.625
L 316.6 237
L 377 199.25
L 220 101.125
L 237 90.5
L 220.2 80
L 200 92.625
L 207 97
L 234.2 80
L 237 81.75
L 212.6 97
L 200 89.125
L 217 78.5
L 200 67.875
L 212.6 60
L 217 62.75
L 200 73.375
L 237 96.5
L 220 107.125
L 377 205.25
L 320 240.875
L 377.8 277
L 397 265
L 240 166.875
L 317 118.75
L 287 100
L 227.8 137
L 220 132.125
L 271.4 100
L 377 166
L 280 226.625
L 296.6 237
L 377 186.75
L 238.2 100
L 220 111.375
L 377 209.5
L 320 245.125
L 339 257
L 377 233.25
L 240 147.625
L 316.2 100
L 317 100.5
L 240 148.625
L 377 234.25
L 340 257.375
L 371.4 277
L 397 261
L 240 162.875
L 317 114.75
L 293.4 100
L 234.2 137
L 220 128.125
L 265 100
L 377 170
L 280 230.625
L 290.2 237
L 377 182.75
L 244.6 100
L 220 115.375
L 377 213.5
L 320 249.125
L 332.6 257
L 377 229.25
L 240 143.625
L 309.8 100
L 317 104.5
L 240 152.625
L 377 238.25
L 340 261.375
L 365 277
L 397 257
L 240 158.875
L 317 110.75
L 299.8 100
L 240 137.375
L 377 223
L 322.6 257
L 320 255.375
L 377 219.75
L 220 121.625
L 254.6 100
L 377 176.5
L 280.2 237
L 280 236.875
L 377 176.25
L 255 100
L 220 121.875
L 377 220
L 320 255.625
L 322.2 257
L 377 222.75
L 240 137.125
L 299.4 100
L 317 111
L 240 159.125
L 397 257.25
L 365.4 277
L 340 261.125
L 377 238
L 240 152.375
L 317 104.25
L 310.2 100
L 240 143.875
L 377 229.5
L 333 257
L 320 248.875
L 377 213.25
L 220 115.125
L 244.2 100
L 377 183
L 290.6 237
L 280 230.375
L 377 169.75
L 265.4 100
L 220 128.375
L 233.8 137
L 293 100
L 317 115
L 240 163.125
L 397 261.25
L 371.8 277
L 340 257.125
L 377 234
L 240 148.375
L 317 100.25
L 316.6 100
L 240 147.875
L 377 233.5
L 339.4 257
L 320 244.875
L 377 209.25
L 220 111.125
L 237.8 100
L 377 187
L 297 237
L 280 226.375
L 377 165.75
L 271.8 100
L 220 132.375
L 227.4 137
L 286.6 100
L 317 119
L 240 167.125
L 397 265.25
L 378.2 277
L 320 240.625
L 377 205
L 220 106.875
L 237 96.25
L 200 73.125
L 217 62.5
L 213 60
L 200 68.125
L 217 78.75
L 200 89.375
L 212.2 97
L 237 81.5
L 234.6 80
L 207.4 97
L 200 92.375
L 219.8 80
L 237 90.75
L 220 101.375
L 377 199.5
L 317 237
L 260 201.375
L 377 128.25
L 363.8 120
L 240.6 197
L 240 196.625
L 362.6 120
L 377 129
L 260 202.125
L 315.8 237
L 377 198.75
L 220 100.625
L 237 90
L 221 80
L 200 93.125
L 206.2 97
L 233.4 80
L 237 82.25
L 213.4 97
L 200 88.625
L 217 78
L 200 67.375
L 211.8 60
L 217 63.25
L 200 73.875
L 237 97
L 220 107.625
L 377 205.75
L 320 241.375
L 377 277
L 397 264.5
L 240 166.375
L 317 118.25
L 287.8 100
L 228.6 137
L 220 131.625
L 270.6 100
L 377 166.5
L 280 227.125
L 295.8 237
L 377 186.25
L 239 100
L 220 111.875
L 377 210
L 320 245.625
L 338.2 257
L 377 232.75
L 240 147.125
L 315.4 100
L 317 101
L 240 149.125
L 377 234.75
L 340 257.875
L 370.6 277
L 397 260.5
L 240 162.375
L 317 114.25
L 294.2 100
L 235 137
L 220 127.625
L 264.2 100
L 377 170.5
L 280 231.125
L 289.4 237
L 377 182.25
L 245.4 100
L 220 115.875
L 377 214
L 320 249.625
L 331.8 257
L 377 228.75
L 240 143.125
L 309 100
L 317 105
L 240 153.125
L 377 238.75
L 340 261.875
L 364.2 277
L 397 256.5
L 240 158.375
L 317 110.25
L 300.6 100
L 240 137.875
L 377 223.5
L 323.4 257
L 320 254.875
L 377 219.25
L 220 121.125
L 253.8 100
L 377 177
L 281 237
L 280 236.375
L 377 175.75
L 255.8 100
L 220 122.375
L 377 220.5
L 320 256.125
L 321.4 257
L 377 222.25
L 220 124.125
L 258.6 100
L 377 174
L 280 234.625
L 283.8 237
L 377 178.75
L 251 100
L 220 119.375
L 377 217.5
L 320 253.125
L 326.2 257
L 377 225.25
L 240 139.625
L 303.4 100
L 317 108.5
L 240 156.625
L 397 254.75
L 361.4 277
L 340 263.625
L 377.8 240
L 397 252
L 357 277
L 340 266.375
L 382.2 240
L 397 249.25
L 352.6 277
L 340 269.125
L 386.6 240
L 397 246.5
L 348.2 277
L 340 271.875
L 391 240
L 397 243.75
L 343.8 277
L 340 274.625
L 395.4 240
L 397 241
L 340 276.625
L 340.6 277
L 397 241.75
L 394.2 240
L 340 273.875
L 345 277
L 397 244.5
L 389.8 240
L 340 271.125
L 349.4 277
L 397 247.25
L 385.4 240
L 340 268.375
L 353.8 277
L 397 250
L 381 240
L 340 265.625
L 358.2 277
L 397 252.75
L 240 154.625
L 317 106.5
L 306.6 100
L 240 141.625
L 377 227.25
L 329.4 257
L 320 251.125
L 377 215.5
L 220 117.375
L 247.8 100
L 377 180.75
L 287 237
L 280 232.625
L 377 172
L 261.8 100
L 220 126.125
L 237.4 137
L 296.6 100
L 317 112.75
L 240 160.875
L 397 259
L 368.2 277
L 340 259.375
L 377 236.25
L 240 150.625
L 317 102.5
L 313 100
L 240 145.625
L 377 231.25
L 335.8 257
L 320 247.125
L 377 211.5
L 220 113.375
L 241.4 100
L 377 184.75
L 293.4 237
L 280 228.625
L 377 168
L 268.2 100
L 220 130.125
L 231 137
L 290.2 100
L 317 116.75
L 240 164.875
L 397 263
L 374.6 277
L 320 242.875
L 377 207.25
L 220 109.125
L 237 98.5
L 200 75.375
L 217 64.75
L 209.4 60
L 200 65.875
L 217 76.5
L 200 87.125
L 215.8 97
L 237 83.75
L 231 80
L 203.8 97
L 200 94.625
L 223.4 80
L 237 88.5
L 220 99.125
L 377 197.25
L 313.4 237
L 260 203.625
L 377 130.5
L 360.2 120
L 240 195.125
L 243 197
L 366.2 120
L 377 126.75
L 260 199.875
L 319.4 237
L 377 201
L 220 102.875
L 237 92.25
L 217.4 80
L 200 90.875
L 209.8 97
L 237 80
1360
"/>
</svg>
